PathFileType	4	(X/Y/Z)	Patient4_TMGait_0pt3_01_right_29.trc.trc
DataRate	CameraRate	NumFrames	NumMarkers	Units	OrigDataRate	OrigDataStartFrame	OrigNumFrames
51.660516605166	51.660516605166	5	33	mm	51.660516605166	36	       141
Frame#	Time	Sacral			L.Shoulder			Chest			R.Shoulder			Neck			R.ASIS			L.ASIS			R.Thigh.Superior			R.Thigh.Lateral			R.Thigh.Inferior			R.Patella			L.Thigh.Superior			L.Thigh.Lateral			L.Thigh.Inferior			L.Patella			L.Shank.Superior			L.Shank.Lateral			L.Shank.Inferior			R.Shank.Superior			R.Shank.Lateral			R.Shank.Inferior			R.Heel			R.Midfoot.Superior			R.Midfoot.Lateral			R.Toe			L.Heel			L.Midfoot.Lateral			L.Midfoot.Superior			L.Toe			L.Elbow			L.Wrist			R.Elbow			R.Wrist			
		X1	Y1	Z1	X2	Y2	Z2	X3	Y3	Z3	X4	Y4	Z4	X5	Y5	Z5	X6	Y6	Z6	X7	Y7	Z7	X8	Y8	Z8	X9	Y9	Z9	X10	Y10	Z10	X11	Y11	Z11	X12	Y12	Z12	X13	Y13	Z13	X14	Y14	Z14	X15	Y15	Z15	X16	Y16	Z16	X17	Y17	Z17	X18	Y18	Z18	X19	Y19	Z19	X20	Y20	Z20	X21	Y21	Z21	X22	Y22	Z22	X23	Y23	Z23	X24	Y24	Z24	X25	Y25	Z25	X26	Y26	Z26	X27	Y27	Z27	X28	Y28	Z28	X29	Y29	Z29	X30	Y30	Z30	X31	Y31	Z31	X32	Y32	Z32	X33	Y33	Z33	

36	54.537500000000	715.598248335659	1008.366357479749	483.567927886563	933.278708412911	1435.079735372572	335.588666642975	1001.121033895215	1363.474646267900	512.697244194625	887.773895556917	1439.003703014463	668.102287646857	887.399334688454	1497.038372203803	489.416255767064	926.907896127904	943.441623486438	632.916925210823	949.041813966495	959.681822580104	359.823102100585	979.082511045828	745.960194075948	604.064535061160	897.174164624148	633.471923679750	655.323191636587	983.530997448005	585.436694748478	581.345322403972	987.812387137071	498.599569017906	587.015008632685	957.759351413927	731.378610500675	381.398947384150	854.572730218069	630.257165378284	307.888793404232	921.462201498945	536.905131333168	371.831719356785	906.846272106074	458.951686047068	370.516122631945	848.212264469169	403.318028893568	359.221600437076	719.698996457005	336.974543449811	303.930180555386	725.189641041352	207.697003535604	361.570726734878	962.783128187979	408.873343270767	591.188981998323	891.519278311027	302.892548042649	648.403614595116	939.682696308632	209.220989731993	587.829954613565	810.046288154148	43.872409806979	553.717677766492	980.920583141806	97.158767720143	593.961336278283	891.561179194914	37.581331405655	630.402096190422	1099.983456248838	42.722082344918	625.202604923964	549.208835810332	99.645071200611	394.535945154605	618.906217430113	70.780418865706	316.818956585077	716.526286729237	107.840791733838	340.866175668799	822.501377993759	35.117787183655	317.240307613879	1014.389004359830	1103.017793402858	200.567216382640	1267.391166958901	1044.506604337759	213.400014930181	751.914284598888	1115.210037897080	762.355780439762	756.905956822657	854.715962374902	784.581166072566	
37	54.556857142857	717.335850530044	1008.901724109188	489.602814889540	933.034556224969	1435.537769438241	338.992003596424	1002.784444780289	1364.190705214686	515.520420678200	890.876044242502	1439.653560967333	671.903206236295	888.648889435979	1497.683408026248	493.035903447309	929.800332751513	943.808116173111	637.108802304701	949.668509756880	960.357248586683	363.938610784924	980.003783701863	745.315209369825	608.011053280890	896.785946988901	633.329720742223	658.743973289630	982.506896480674	584.689299225417	584.641718979990	985.822836217253	497.797500811386	589.811760064705	962.137084714377	732.971810295553	385.364099788239	861.569205372871	630.312529186239	311.497864385636	930.624995194738	537.589945111317	375.278453433594	916.486098552630	458.406903265335	372.929235230103	855.733658651588	403.599418378724	361.544396623990	725.160684956967	341.776688063445	306.067066555648	727.270263905967	211.890787289746	362.324411788570	960.093218947194	408.335037452221	593.319237246959	887.978835626833	302.618396606910	649.810799711907	935.321488306744	208.900023175823	588.665269989755	804.485851026593	44.040025525748	553.715701477102	975.389841036291	97.141703760305	594.121228569988	885.965175096773	37.631732037906	630.363075809302	1094.401605816964	42.279649200836	625.425567628241	547.950577172734	110.806346797081	394.401458816321	616.237114242472	78.706804829216	316.730064987664	715.404328225148	111.111608894747	340.738065456551	817.070010469209	34.256167750258	317.331520866088	1008.289376248063	1100.724090908773	205.724313527476	1258.948170892290	1031.574151394619	217.130414351484	760.288924843016	1114.085107802992	769.548959217416	769.087494504914	853.836816831007	792.777298989136	
38	54.576214285714	718.734578684325	1009.196458173168	495.496125019281	932.411671901616	1435.767540384376	342.157818399492	1004.140056586322	1364.666419442161	518.046073212604	893.768671232051	1440.063424900443	675.453967306166	889.639568153455	1498.103964063487	496.438329199381	932.467992211005	944.020411400394	641.060195399078	949.948544841514	960.871395402142	367.772415323553	980.910907949368	744.658311896889	611.666152725234	896.502166562024	633.085668824572	661.933606243588	981.578775598152	583.913043017120	587.670662107999	983.966162777920	496.900391347098	592.397953976714	966.807308655639	734.678716949009	389.341310968534	869.343504015686	630.211672906289	315.127973290263	940.617175598671	538.398159301993	379.006211764536	927.086565460742	457.964019214508	375.708988277071	864.278806436531	403.834635552796	364.151236411497	731.805472575648	346.769093823747	308.313316018237	730.126059344953	216.485972939070	363.316718916831	957.484243462330	407.701395195975	595.287318638868	884.487245791639	302.299891554102	651.119051617309	930.974097134123	208.528346348087	589.409201203494	798.867746743034	44.183896769290	553.709630249345	969.818455855037	97.135160287496	594.276116908704	880.304908728594	37.673675041969	630.315831937209	1088.750059059213	41.890772976355	625.612835430213	547.561549414197	123.041935598438	394.386641743998	614.271116935718	87.737378977298	316.729538670835	714.822719723536	115.024130223362	340.853155419094	811.751727948058	33.294632609873	317.460343565943	1001.580143474961	1098.216419127423	210.789026375861	1248.854547097303	1017.033548384897	220.912668013470	769.222757918141	1112.486019859659	776.429855537249	782.109449963936	852.528219001464	800.585342430575	
39	54.595571428571	719.781467441379	1009.222763217604	501.237687076041	931.382783812347	1435.750209832811	345.070770336255	1005.165446194845	1364.877821423997	520.249963732140	896.443636724615	1440.205460366549	678.742631743452	890.355744002032	1498.275855551360	499.613387149278	934.920779753331	944.078222018801	644.735028438512	949.889205649576	961.208891814467	371.283065749841	981.874033982888	743.998432418910	614.976721274076	896.446622993160	632.716725883445	664.851564607031	980.869583832791	583.109575661256	590.358388213730	982.405381492978	495.881920875585	594.691307596116	971.720206209014	736.512260972051	393.331573260329	877.802678854472	629.995186928080	318.817852624701	951.322173773426	539.380752131519	383.043758656452	938.549291580357	457.681871619659	378.904491115909	873.767912931703	404.057961524080	367.078199836773	739.570098787166	351.917156065140	310.733593912875	733.764803433572	221.442186926873	364.587987582138	955.075686909195	406.946444285856	597.025968481939	881.155969506293	301.934559724623	652.298433437804	926.686777525246	208.089045037476	590.020518318613	793.187264438822	44.301543276102	553.708964428548	964.205767460861	97.139431753003	594.421735323080	874.576457736774	37.707480556135	630.269356160237	1083.029667185874	41.559775179471	625.765595845690	548.139077777102	136.151055194383	394.577301249299	613.130804403889	97.748132845314	316.885168172467	714.858777554473	119.551527257560	341.252668298271	806.688140812033	32.306099203458	317.628929027807	994.361833218931	1095.517077084296	215.765039826505	1236.954583666958	1000.963036342382	224.743407670991	778.716256897831	1110.417487325494	782.946765322396	796.111666463084	850.813862053868	807.950503306419	
40	54.614928571429	720.480097836476	1008.957033300658	506.819014632491	929.931546455290	1435.468217163194	347.715465517195	1005.848195886843	1364.809576476773	522.111192267906	898.897637478220	1440.060434485683	681.755912164253	890.786866429135	1498.179520351748	502.546642346635	937.172724892533	943.978338619757	648.108859418567	949.513625783169	961.358315126428	374.445948058779	982.950452090521	743.329914969907	617.903876270437	896.725160773195	632.190878433255	667.466298764492	980.485759949244	582.270394990877	592.644891481385	981.287264365727	494.713129216314	596.622887275159	976.791466171908	738.475220846079	397.335189730230	886.795644785413	629.713347424243	322.598818939572	962.565575174432	540.584223626281	387.396595677687	950.714503347146	457.617818777417	382.531693710051	884.064425072714	404.312658046312	370.336669048494	748.324007621378	357.160067113023	313.394274833217	738.186274088815	226.672454863817	366.172161258396	952.973629224508	406.042143075530	598.479874393432	878.082312504194	301.515563513787	653.321954398813	922.500399157748	207.565984831028	590.469137490271	787.448093101526	44.391870852716	553.720987347080	958.555063820905	97.152760644157	594.550794491781	868.785582995620	37.733212522157	630.230743946387	1077.249228148384	41.289856159063	625.886107548147	549.766136840755	149.791155190723	395.074992121635	612.941095874187	108.487521926175	317.276027628250	715.612264589238	124.595837689181	341.969173744134	802.096827802942	31.398406495576	317.840528014420	986.732302294108	1092.640614060958	220.660274616780	1223.099941732755	983.519159921026	228.610443816385	788.741783734237	1107.915042031736	789.057099894035	811.219965286571	848.763211044884	814.820413499058	
